<?xml version="1.0" encoding="utf-8"?>
<!-- Generator: Adobe Illustrator 25.2.0, SVG Export Plug-In . SVG Version: 6.00 Build 0)  -->
<svg version="1.1" id="Layer_1" xmlns="http://www.w3.org/2000/svg" xmlns:xlink="http://www.w3.org/1999/xlink" x="0px" y="0px"
	 viewBox="0 0 340 340" style="enable-background:new 0 0 340 340;" xml:space="preserve">
<style type="text/css">
	.st0{fill:#FFFFFF;}
	.st1{fill:#FCFBFD;}
	.st2{fill:#FFFEFE;}
	.st3{fill:#A74191;}
</style>
<path class="st0" d="M24.69,206.13c-6.46-5.61-11.67-12.14-14.27-20.4c-4.45-14.14-2.02-27.18,6.82-39.02
	c1.32-1.77,2.9-3.36,4.47-4.93c39.42-39.44,78.85-78.87,118.27-118.3c6.5-6.5,14.14-11.1,23.23-12.53
	c12.1-1.91,23.29,0.58,33.06,8.39c2.82,2.26,5.26,4.87,7.72,7.47c-0.92,0.99-1.85,1.97-2.77,2.96c-2.24,2.4-4.8,4.48-6.83,7.09
	c-2.76-2.4-5.03-5.35-8.11-7.37c-5.58-3.65-11.56-5.68-18.42-4.87c-6.32,0.74-11.75,3.08-16.24,7.57
	C111.06,72.74,70.5,113.3,29.94,153.85c-1.17,1.17-2.19,2.43-3.08,3.81c-3.36,5.21-4.83,10.85-4.36,17.09
	c0.38,5.05,2.17,9.43,4.97,13.58c1.95,2.88,4.56,5.11,6.78,7.72c-2.93,2.87-5.85,5.74-8.78,8.6
	C25.05,205.07,24.68,205.5,24.69,206.13z"/>
<path class="st0" d="M330.82,160.6c2.12,5.95,2.09,12.06,1.26,18.21c-0.1,0.73,0.41,1.57-0.38,2.18c-0.94-0.05-1.39,0.68-1.94,1.23
	C279.85,232.1,229.96,282,180.07,331.9c-0.55,0.55-1.28,1-1.23,1.94c-0.89,0.86-2.21,0.65-3.13,0.69
	c-5.8,0.24-11.65,0.55-17.25-1.56c0.01-0.91,0.71-1.38,1.26-1.93c2.75-2.76,5.51-5.5,8.25-8.27c0.54-0.55,1.28-0.98,1.33-1.89
	c1.69-0.23,3.38-0.18,5.09-0.43c5.85-0.87,10.87-3.31,15.01-7.44c40.56-40.52,81.09-81.07,121.63-121.61
	c0.55-0.55,1.08-1.14,1.56-1.76c4.19-5.34,6.23-11.41,6.14-18.2c0.91-0.05,1.34-0.79,1.89-1.33c2.77-2.74,5.51-5.51,8.27-8.25
	C329.44,161.31,329.9,160.6,330.82,160.6z"/>
<path class="st1" d="M178.84,333.84c-0.05-0.94,0.68-1.39,1.23-1.94c49.89-49.9,99.78-99.8,149.68-149.69
	c0.55-0.55,1-1.28,1.94-1.23c-0.68,5.49-3.19,10.24-6.05,14.83c-1.2,1.93-2.7,3.63-4.32,5.24
	c-41.17,41.14-82.29,82.34-123.53,123.43C192.62,329.63,186.09,332.6,178.84,333.84z"/>
<path class="st0" d="M237.75,60.58c8.48,8.42,16.96,16.84,25.43,25.28c1.93,1.93,3.82,3.9,5.72,5.86c-0.61,0.69-1.21,1.4-1.84,2.08
	c-2.53,2.71-5.42,5.09-7.74,8.01c-2.06-2.01-4.14-4-6.17-6.04c-8.49-8.53-16.97-17.07-25.46-25.61c0.64-0.56,1.3-1.1,1.92-1.68
	C232.36,65.88,234.81,62.98,237.75,60.58z"/>
<path class="st0" d="M89.58,271.04c-9.22-9.23-18.45-18.46-27.67-27.68c0.56-0.64,1.1-1.3,1.68-1.92c2.59-2.75,5.5-5.19,7.88-8.14
	c9.39,9.39,18.79,18.78,28.18,28.17c-0.64,0.56-1.31,1.09-1.93,1.67C94.98,265.73,92.53,268.64,89.58,271.04z"/>
<path class="st0" d="M24.69,206.13c0-0.63,0.37-1.07,0.79-1.48c2.93-2.87,5.85-5.74,8.78-8.6c8.38,8.38,16.77,16.77,25.15,25.15
	c-0.64,0.56-1.31,1.09-1.93,1.68c-2.76,2.59-5.21,5.5-8.15,7.9C41.11,222.56,32.9,214.35,24.69,206.13z"/>
<path class="st2" d="M278.84,101.69c7.33,7.11,14.57,14.3,21.65,21.66c-0.56,0.64-1.1,1.3-1.68,1.92c-2.59,2.75-5.49,5.19-7.88,8.13
	c-7.22-7.22-14.43-14.44-21.65-21.66c0.56-0.64,1.1-1.3,1.69-1.92C273.55,107.07,276.46,104.63,278.84,101.69z"/>
<path class="st0" d="M121.2,302.64c-7.35-7.08-14.54-14.33-21.65-21.65c0.64-0.56,1.3-1.09,1.92-1.68c2.75-2.59,5.2-5.48,8.13-7.88
	c7.22,7.22,14.44,14.44,21.65,21.65c-0.64,0.56-1.3,1.1-1.92,1.68C126.59,297.35,124.14,300.24,121.2,302.64z"/>
<path class="st0" d="M121.2,302.64c2.93-2.4,5.38-5.29,8.13-7.88c0.62-0.58,1.28-1.12,1.92-1.68c6.74,6.51,13.38,13.12,19.88,19.88
	c-0.56,0.64-1.09,1.3-1.68,1.92c-2.59,2.75-5.49,5.2-7.88,8.13C134.65,316.35,127.88,309.55,121.2,302.64z"/>
<path class="st0" d="M290.93,133.39c2.39-2.94,5.29-5.38,7.88-8.13c0.58-0.62,1.12-1.28,1.68-1.92c6.75,6.52,13.4,13.14,19.91,19.91
	c-3.2,3.34-6.4,6.68-9.6,10.02C304.05,146.77,297.44,140.13,290.93,133.39z"/>
<path class="st0" d="M237.75,60.58c-2.94,2.4-5.39,5.3-8.14,7.89c-0.62,0.58-1.28,1.12-1.92,1.68
	c-5.92-5.92-11.83-11.83-17.75-17.75c0.64-0.56,1.3-1.09,1.92-1.68c2.75-2.59,5.2-5.49,8.14-7.89
	C225.91,48.75,231.83,54.67,237.75,60.58z"/>
<path class="st0" d="M220,42.83c-2.94,2.4-5.39,5.3-8.14,7.89c-0.62,0.58-1.28,1.12-1.92,1.68c-5.18-5.18-10.37-10.36-15.55-15.54
	c2.03-2.6,4.59-4.69,6.83-7.09c0.92-0.99,1.85-1.97,2.77-2.96C209.32,32.15,214.66,37.49,220,42.83z"/>
<path class="st0" d="M49.32,230.78c2.95-2.4,5.4-5.31,8.15-7.9c0.62-0.58,1.28-1.12,1.93-1.68c4.03,4.03,8.05,8.06,12.08,12.09
	c-2.39,2.95-5.3,5.39-7.88,8.14c-0.58,0.62-1.12,1.28-1.68,1.92C57.72,239.16,53.52,234.97,49.32,230.78z"/>
<path class="st0" d="M278.84,101.69c-2.38,2.95-5.29,5.38-7.87,8.13c-0.58,0.62-1.12,1.28-1.69,1.92c-3.46-3.17-6.74-6.52-9.96-9.93
	c2.32-2.92,5.2-5.3,7.74-8.01c0.63-0.68,1.23-1.38,1.84-2.08C272.31,94.94,275.67,98.22,278.84,101.69z"/>
<path class="st0" d="M109.6,271.43c-2.93,2.4-5.38,5.29-8.13,7.88c-0.62,0.58-1.28,1.12-1.92,1.68c-3.47-3.17-6.75-6.53-9.97-9.94
	c2.94-2.4,5.4-5.31,8.15-7.9c0.62-0.58,1.29-1.12,1.93-1.67C103.08,264.68,106.43,267.96,109.6,271.43z"/>
<path class="st0" d="M330.82,160.6c-0.91,0.01-1.38,0.71-1.93,1.26c-2.76,2.75-5.5,5.51-8.27,8.25c-0.55,0.54-0.98,1.28-1.89,1.33
	c-0.38-3.92-1.23-7.72-3.03-11.26c3.95-2.81,7.03-6.51,10.33-10C328.29,153.35,329.92,156.8,330.82,160.6z"/>
<path class="st0" d="M169.3,320.88c-0.05,0.91-0.79,1.34-1.33,1.89c-2.74,2.77-5.51,5.51-8.25,8.27c-0.55,0.55-1.26,1.02-1.26,1.93
	c-3.63-0.78-6.84-2.48-9.94-4.45c1.27-2.5,3.71-3.95,5.45-6.02c1.32-1.58,3.25-2.63,4.08-4.64
	C161.63,319.46,165.36,320.55,169.3,320.88z"/>
<path class="st0" d="M326.03,150.18c-3.29,3.49-6.38,7.19-10.33,10c-1.44-2.44-3.09-4.73-4.89-6.91c3.2-3.34,6.4-6.68,9.6-10.02
	C322.77,145.16,324.48,147.6,326.03,150.18z"/>
<path class="st0" d="M158.04,317.85c-0.82,2.02-2.75,3.06-4.08,4.64c-1.74,2.08-4.18,3.52-5.45,6.02c-2.51-1.59-4.9-3.33-6.95-5.5
	c2.39-2.94,5.3-5.38,7.88-8.13c0.58-0.62,1.12-1.28,1.68-1.92C153.53,314.45,155.46,316.61,158.04,317.85z"/>
<path class="st2" d="M158.04,317.85c-2.58-1.24-4.51-3.4-6.91-4.89c-6.49-6.76-13.14-13.37-19.88-19.88
	c-7.22-7.22-14.44-14.44-21.65-21.65c-3.17-3.46-6.52-6.74-9.93-9.96c-9.39-9.39-18.79-18.78-28.18-28.17
	c-4.03-4.03-8.05-8.06-12.08-12.09c-8.38-8.38-16.77-16.77-25.15-25.15c-2.22-2.61-4.84-4.84-6.78-7.72
	c-2.8-4.15-4.59-8.53-4.97-13.58c-0.47-6.24,1-11.88,4.36-17.09c0.89-1.38,1.92-2.65,3.08-3.81
	C70.5,113.3,111.06,72.74,151.62,32.19c4.49-4.49,9.92-6.83,16.24-7.57c6.86-0.81,12.84,1.22,18.42,4.87
	c3.08,2.01,5.35,4.97,8.11,7.37c5.18,5.18,10.37,10.36,15.55,15.54c5.92,5.92,11.83,11.83,17.75,17.75
	c8.48,8.54,16.96,17.08,25.46,25.61c2.03,2.04,4.11,4.03,6.17,6.04c3.22,3.41,6.5,6.77,9.96,9.93c7.22,7.22,14.43,14.44,21.65,21.66
	c6.51,6.74,13.12,13.38,19.87,19.88c1.8,2.18,3.45,4.47,4.89,6.91c1.8,3.54,2.65,7.34,3.03,11.26c0.09,6.79-1.95,12.86-6.14,18.2
	c-0.48,0.62-1.01,1.21-1.56,1.76c-40.53,40.54-81.06,81.09-121.63,121.61c-4.13,4.13-9.16,6.57-15.01,7.44
	c-1.71,0.25-3.4,0.2-5.09,0.43C165.36,320.55,161.63,319.46,158.04,317.85z M225.5,110.83c0.56-0.64,0.6-1.38,0.44-2.17
	c0.31-1.35-0.62-2.56-0.43-3.89c-0.06-1.69-0.57-3.27-1.21-4.81c-0.39-1.65-1.08-3.17-2.02-4.57c-1.05-1.5-2.1-3-3.15-4.5
	c-1.72-2-3.71-3.64-6.09-4.79c-2.16-1.7-4.61-2.67-7.33-3c-4.37-1.39-8.79-1.24-13.13-0.08c-9.64,2.58-15.78,8.9-18.87,18.29
	c-0.47,2.58-1.23,5.12-0.87,7.79c-0.19,2.55,0.29,4.99,1.18,7.37c0.57,2.01,1.01,4.09,2.6,5.63c0.38,1.62,1.53,2.73,2.6,3.89
	c1.25,1.23,2.12,2.89,3.93,3.5c0.72,1.12,1.82,1.72,3.03,2.16c0.47,0.48,1.03,0.78,1.71,0.84c1,0.86,2.21,1.17,3.49,1.32
	c1.03,0.76,2.22,0.87,3.44,0.84c5.55,1.09,10.94,0.49,16.02-1.97c6.33-3.06,10.8-7.94,13.39-14.51c0.38-1.43,0.94-2.81,0.99-4.32
	C225.98,112.93,225.44,111.85,225.5,110.83z M110.88,137.62c-1.22-5.55-3.28-10.84-5.38-16.29c-1.94,7.47-3.88,14.93-5.82,22.4
	c-0.84,1.57-1.01,3.35-1.46,5.03c-1.05,3.93-2.39,7.79-2.99,11.83c-0.12,0.16-0.3,0.3-0.35,0.48c-1.73,6.34-3.44,12.68-5.15,19.02
	c-0.49,1.96-1,3.92-1.48,5.88c-0.78,3.24-1.99,6.37-2.42,9.7c-1.44,4.25-2.69,8.56-3.46,12.99c-1.24,3.83-1.87,7.7-0.87,11.69
	c0.13,2.97,1.14,5.67,2.59,8.22c0.61,1.44,1.27,2.85,2.48,3.91c0.62,1.79,2.25,2.68,3.49,3.92c1.2,1.69,2.97,2.6,4.77,3.47
	c1.3,1,2.8,1.56,4.34,2.04c4.48,1.84,9.21,1.85,13.8,1.12c6.77-1.09,12.43-4.49,16.63-10.04c2.65-3.51,4.41-7.41,5.13-11.77
	c0.7-1.67,1.37-3.35,0.74-5.21c-0.58-1.59-1.15-3.18-1.73-4.76c-0.43-1.59-0.87-3.17-1.3-4.76c-0.73-1.53-0.65-3.33-1.61-4.78
	c-0.76-2.59-1.52-5.18-2.29-7.77c-1.01-3.17-2.02-6.35-3.03-9.52c-0.85-3.07-1.66-6.17-2.91-9.12c-0.81-3.86-2.17-7.55-3.46-11.26
	c-1.2-4.69-2.64-9.31-4.33-13.85C113.79,145.92,112.45,141.73,110.88,137.62z M209.94,230.34c0.55,1.78,1.53,3.26,3.06,4.35
	c0.71,2.1,2.75,2.72,4.31,3.87c1.63,1.1,3.37,1.96,5.22,2.62c6.08,2.85,12.38,2.84,18.65,0.98c5.32-1.58,10.04-4.26,13.35-8.96
	c2.9-4.13,4.36-8.79,5.18-13.71c0-1.73,0-3.46,0-5.19c0.13-2.13-0.43-4.12-1.18-6.08c-0.06-1.7-0.71-3.23-1.42-4.74
	c-0.42-1.78-0.76-3.57-1.61-5.22c-0.57-2.36-1.1-4.73-2.16-6.93c-0.47-2.53-1.23-4.98-2.28-7.33c-0.95-4.3-2.35-8.45-3.9-12.56
	c-1.19-5.32-3.03-10.43-4.76-15.58c-1.35-5.27-3.05-10.43-4.76-15.59c-1.15-3.75-2.31-7.5-3.46-11.26
	c-0.98-3.51-1.95-7.01-3.42-10.77c-3.9,10.8-10.76,18.03-21.29,21.56c-10.63,3.57-20.44,1.5-29.89-4.84
	c0.41,1.49,0.66,2.58,1.01,3.63c1.95,5.88,3.42,11.91,5.68,17.69c0.8,3.71,2,7.29,3.34,10.83c1.28,5.29,3.07,10.42,4.76,15.59
	c1.63,5.34,3.26,10.67,4.89,16.01c1.3,4.08,2.6,8.17,3.9,12.25c0.78,2.58,1.24,5.25,2.47,7.68c0.31,2.44,1.18,4.7,2.17,6.93
	C208.01,227.38,209.03,228.84,209.94,230.34z M191.3,193.95c-0.58-2.02-1.15-4.04-1.73-6.06c-1.11-3.47-2.23-6.94-3.34-10.42
	c-1.03-3.65-1.99-7.32-3.46-10.82c-1.54-6.16-3.49-12.2-5.63-18.18c-1.39-5.73-3.29-11.31-5.19-16.88
	c-2.06-6.77-4.12-13.55-6.18-20.32c-0.27-0.94-0.47-1.9-0.81-2.81c-1.7-4.57-2.4-9.52-5.16-13.7c-4.48-8.25-12.15-11.34-20.81-12.43
	c-5.65-0.71-10.98,0.86-15.98,3.59c-8,4.38-11.67,11.61-12.93,20.18c-0.78,5.34,0.42,10.57,2.47,15.56
	c1.69,5.65,3.19,11.36,5.32,16.87c-0.24,1.2,0.49,2.17,0.81,3.23c1.72,5.61,3.5,11.2,5.26,16.8c1.76,5.81,3.52,11.63,5.28,17.44
	c1.85,5.98,3.69,11.97,5.54,17.95c1.34,3.4,1.91,7.06,3.47,10.39c0.79,3.71,1.92,7.32,3.34,10.84c0.38,1.94,0.8,3.87,1.74,5.63
	c0.47,1.77,0.51,3.68,1.74,5.2c1.12,3.88,3.13,7.22,6.08,9.98c1.2,1.68,2.96,2.6,4.76,3.46c6.36,3.95,13.32,4.74,20.48,3.32
	c5.15-1.02,9.95-3.36,13.43-7.3c4.92-5.58,7.38-12.31,7.17-19.88c0.17-1.95-0.22-3.8-0.86-5.63c0.06-0.57,0.11-1.1-0.09-1.68
	c-1.01-3.03-1.97-6.09-2.94-9.13C192.28,197.48,192.28,195.56,191.3,193.95z"/>
<path class="st3" d="M123.92,158.57c-1.76-5.6-3.53-11.19-5.25-16.8c-0.32-1.06-1.05-2.02-0.81-3.23c2.5-1.41,5-2.8,7.48-4.22
	c9.16-5.27,18.29-10.57,27.46-15.81c4.3-2.45,8.46-5.14,12.96-7.24c2.06,6.77,4.12,13.55,6.18,20.32c-0.75,0.06-1.33,0.48-1.96,0.84
	c-3.29,1.92-6.59,3.82-9.88,5.72c-7.96,4.59-15.91,9.21-23.89,13.77C132.16,154.23,128.35,156.97,123.92,158.57z"/>
<path class="st3" d="M112.54,121.67c-2.05-5-3.25-10.23-2.47-15.56c1.26-8.57,4.93-15.8,12.93-20.18c5-2.74,10.33-4.31,15.98-3.59
	c8.66,1.09,16.33,4.19,20.81,12.43c-3.33,2.52-7.09,4.34-10.67,6.44c-9.11,5.33-18.25,10.62-27.44,15.81
	C118.71,118.69,116.03,120.98,112.54,121.67z"/>
<path class="st3" d="M134.73,193.96c-1.85-5.98-3.69-11.97-5.53-17.95c4.51-2.65,9-5.33,13.53-7.95
	c8.07-4.68,16.14-9.38,24.27-13.96c3.36-1.9,6.51-4.2,10.14-5.62c2.15,5.98,4.09,12.02,5.63,18.18c-3.81,1.69-7.24,4.05-10.85,6.1
	c-8.05,4.56-16.04,9.24-24.07,13.85C143.5,189.1,139.27,191.8,134.73,193.96z"/>
<path class="st3" d="M177.14,148.47c-3.63,1.42-6.78,3.72-10.14,5.62c-8.13,4.58-16.19,9.28-24.27,13.96
	c-4.53,2.62-9.02,5.3-13.53,7.95c-1.76-5.81-3.52-11.63-5.28-17.44c4.43-1.6,8.24-4.34,12.29-6.65c7.98-4.56,15.93-9.18,23.89-13.77
	c3.3-1.9,6.6-3.8,9.88-5.72c0.62-0.37,1.21-0.78,1.96-0.84C173.85,137.16,175.75,142.74,177.14,148.47z"/>
<path class="st3" d="M112.54,121.67c3.49-0.68,6.18-2.98,9.15-4.66c9.19-5.19,18.32-10.48,27.44-15.81
	c3.59-2.1,7.34-3.92,10.67-6.44c2.76,4.17,3.46,9.12,5.16,13.7c0.34,0.91,0.54,1.87,0.81,2.81c-4.5,2.09-8.67,4.78-12.96,7.24
	c-9.17,5.24-18.31,10.55-27.46,15.81c-2.48,1.43-4.99,2.82-7.48,4.22C115.73,133.03,114.23,127.32,112.54,121.67z"/>
<path class="st3" d="M242.39,155.86c1.74,5.15,3.57,10.27,4.76,15.58c-2.48,0.68-4.43,2.35-6.61,3.58
	c-8.01,4.52-15.94,9.19-23.91,13.78c-5.79,3.33-11.6,6.61-17.4,9.92c-1.63-5.34-3.26-10.67-4.89-16.01
	c0.68,0.04,1.21-0.25,1.79-0.59c4.22-2.46,8.49-4.86,12.72-7.3c7.97-4.59,15.91-9.23,23.91-13.79
	C235.93,159.23,238.87,157,242.39,155.86z"/>
<path class="st3" d="M242.39,155.86c-3.52,1.14-6.46,3.37-9.62,5.17c-7.99,4.56-15.94,9.2-23.91,13.79
	c-4.24,2.44-8.5,4.83-12.72,7.3c-0.58,0.34-1.12,0.63-1.79,0.59c-1.69-5.16-3.48-10.3-4.76-15.59c1.37-0.27,2.52-1.03,3.69-1.71
	c3.17-1.84,6.33-3.69,9.5-5.52c8.88-5.15,17.73-10.36,26.68-15.39c2.66-1.5,5.08-3.53,8.16-4.22
	C239.34,145.43,241.04,150.59,242.39,155.86z"/>
<path class="st3" d="M199.24,198.72c5.8-3.3,11.61-6.59,17.4-9.92c7.97-4.59,15.9-9.25,23.91-13.78c2.18-1.23,4.13-2.91,6.61-3.58
	c1.55,4.11,2.95,8.26,3.9,12.56c-3.61,1.29-6.67,3.6-9.96,5.47c-8.91,5.07-17.73,10.29-26.65,15.34c-3.73,2.11-7.27,4.59-11.3,6.16
	C201.83,206.88,200.54,202.8,199.24,198.72z"/>
<path class="st3" d="M237.62,140.27c-3.09,0.69-5.5,2.72-8.16,4.22c-8.95,5.03-17.8,10.25-26.68,15.39
	c-3.17,1.84-6.33,3.68-9.5,5.52c-1.18,0.69-2.32,1.44-3.69,1.71c-1.34-3.54-2.54-7.13-3.34-10.83c4.49-2.55,9-5.08,13.47-7.65
	c8.16-4.69,16.3-9.42,24.47-14.1c3.3-1.89,6.46-4.01,9.97-5.53C235.32,132.77,236.47,136.52,237.62,140.27z"/>
<path class="st3" d="M141.54,215.18c-1.42-3.52-2.55-7.13-3.34-10.84c2.05-0.72,3.79-2.01,5.65-3.08
	c12.26-7.06,24.5-14.15,36.78-21.18c1.78-1.02,3.4-2.48,5.6-2.61c1.11,3.47,2.23,6.94,3.34,10.42c-0.74,0.08-1.31,0.53-1.93,0.89
	c-3.28,1.92-6.59,3.79-9.88,5.69c-7.95,4.59-15.88,9.22-23.86,13.76C149.79,210.58,145.85,213.21,141.54,215.18z"/>
<path class="st3" d="M186.23,177.48c-2.21,0.13-3.82,1.59-5.6,2.61c-12.27,7.03-24.52,14.12-36.78,21.18
	c-1.86,1.07-3.6,2.35-5.65,3.08c-1.55-3.33-2.12-6.99-3.47-10.39c4.54-2.16,8.77-4.86,13.12-7.36c8.02-4.61,16.01-9.29,24.07-13.85
	c3.61-2.04,7.04-4.41,10.85-6.1C184.24,170.16,185.2,173.83,186.23,177.48z"/>
<path class="st3" d="M151.1,235.99c-2.95-2.76-4.96-6.1-6.08-9.98c0.91,0.04,1.64-0.4,2.39-0.84c3.28-1.93,6.58-3.82,9.88-5.72
	c7.96-4.59,15.91-9.2,23.88-13.77c3.92-2.24,7.64-4.83,11.86-6.53c0.98,3.05,1.93,6.1,2.94,9.13c0.19,0.58,0.15,1.12,0.09,1.68
	c-3.45,1.11-6.32,3.32-9.42,5.06c-9.01,5.06-17.95,10.26-26.84,15.53C156.86,232.3,153.57,233.5,151.1,235.99z"/>
<path class="st3" d="M125.5,184.43c1.01,3.17,2.02,6.35,3.03,9.52c-3.18,1.35-6.04,3.27-9.02,4.99
	c-10.08,5.8-20.11,11.69-30.22,17.43c-2.53,1.44-4.81,3.42-7.8,3.99c-1.01-3.99-0.38-7.86,0.87-11.69c0.35-0.06,0.76-0.02,1.05-0.19
	c9.66-5.55,19.3-11.13,28.96-16.69C116.71,189.29,120.95,186.58,125.5,184.43z"/>
<path class="st3" d="M196.93,215.6c0.21,7.57-2.25,14.3-7.17,19.88c-3.47,3.94-8.28,6.27-13.43,7.3
	c-7.16,1.42-14.11,0.63-20.48-3.32c1.66-1.76,3.89-2.65,5.91-3.83c8.06-4.72,16.13-9.4,24.26-13.98
	C189.65,219.6,193.04,217.15,196.93,215.6z"/>
<path class="st3" d="M119.13,164.06c1.3,3.71,2.66,7.4,3.46,11.26c-0.47,0.16-0.98,0.25-1.41,0.5
	c-9.61,5.58-19.17,11.23-28.83,16.72c-2.09,1.19-3.99,2.87-6.53,3.15c0.42-3.33,1.64-6.46,2.42-9.7c0.47-1.97,0.98-3.92,1.48-5.88
	c1.08,0.07,1.94-0.53,2.8-1.03c4.92-2.82,9.77-5.77,14.73-8.53C111.19,168.36,114.9,165.74,119.13,164.06z"/>
<path class="st3" d="M81.49,220.36c2.99-0.57,5.27-2.55,7.8-3.99c10.11-5.74,20.14-11.63,30.22-17.43c2.98-1.71,5.84-3.64,9.02-4.99
	c0.76,2.59,1.52,5.18,2.29,7.77c-4.14,2.43-8.26,4.88-12.41,7.29c-8.12,4.71-16.24,9.41-24.38,14.07c-3.29,1.88-6.45,3.99-9.93,5.51
	C82.63,226.03,81.63,223.34,81.49,220.36z"/>
<path class="st3" d="M85.82,195.69c2.54-0.28,4.45-1.97,6.53-3.15c9.66-5.49,19.22-11.14,28.83-16.72c0.42-0.25,0.94-0.34,1.41-0.5
	c1.25,2.95,2.05,6.04,2.91,9.12c-4.55,2.15-8.79,4.86-13.14,7.37c-9.65,5.56-19.3,11.14-28.96,16.69c-0.29,0.17-0.7,0.13-1.05,0.19
	C83.13,204.25,84.38,199.94,85.82,195.69z"/>
<path class="st3" d="M203.13,210.97c4.03-1.57,7.57-4.05,11.3-6.16c8.92-5.05,17.74-10.27,26.65-15.34
	c3.29-1.87,6.35-4.18,9.96-5.47c1.06,2.35,1.81,4.8,2.28,7.33c-8.29,4.75-16.59,9.51-24.88,14.26c-7.61,4.36-15.23,8.71-22.84,13.06
	C204.38,216.22,203.91,213.54,203.13,210.97z"/>
<path class="st3" d="M119.13,164.06c-4.22,1.68-7.94,4.3-11.88,6.49c-4.96,2.75-9.81,5.7-14.73,8.53c-0.86,0.49-1.72,1.1-2.8,1.03
	c1.72-6.34,3.43-12.68,5.15-19.02c0.05-0.18,0.23-0.32,0.35-0.48c2.78-0.25,4.77-2.17,7.08-3.4c4.21-2.25,8.15-4.99,12.5-6.99
	C116.49,154.74,117.93,159.36,119.13,164.06z"/>
<path class="st3" d="M205.61,218.65c7.61-4.35,15.23-8.7,22.84-13.06c8.3-4.75,16.59-9.51,24.88-14.26c1.06,2.2,1.59,4.57,2.16,6.93
	c-3.66,2.12-7.32,4.24-10.97,6.35c-8.87,5.13-17.71,10.31-26.62,15.36c-3.35,1.9-6.53,4.13-10.12,5.61
	C206.78,223.35,205.92,221.08,205.61,218.65z"/>
<path class="st3" d="M234.16,129.01c-3.5,1.52-6.67,3.64-9.97,5.53c-8.17,4.67-16.31,9.41-24.47,14.1
	c-4.48,2.57-8.98,5.1-13.47,7.65c-2.26-5.78-3.73-11.81-5.68-17.69c-0.35-1.05-0.6-2.14-1.01-3.63c9.45,6.34,19.26,8.41,29.89,4.84
	c10.53-3.53,17.39-10.76,21.29-21.56C232.22,122,233.19,125.51,234.16,129.01z"/>
<path class="st3" d="M259.7,219.49c-0.82,4.91-2.27,9.57-5.18,13.71c-3.31,4.71-8.03,7.38-13.35,8.96
	c-6.27,1.86-12.57,1.87-18.65-0.98c0.34-0.77,1.02-1.15,1.72-1.55c8.06-4.66,16.05-9.43,24.17-13.97
	C252.15,223.57,255.63,220.98,259.7,219.49z"/>
<path class="st3" d="M213.04,86.1c2.38,1.15,4.37,2.79,6.09,4.79c-3.44,1.95-6.9,3.86-10.32,5.84c-9.7,5.62-19.36,11.3-29.1,16.85
	c-1.84,1.05-3.45,2.62-5.7,2.89c-0.88-2.38-1.37-4.82-1.18-7.37c1.31,0.03,2.33-0.73,3.37-1.32c8.2-4.71,16.41-9.42,24.55-14.23
	C204.87,91.11,209.23,89.06,213.04,86.1z"/>
<path class="st3" d="M141.54,215.18c4.31-1.97,8.25-4.61,12.35-6.94c7.98-4.54,15.91-9.17,23.86-13.76c3.29-1.9,6.6-3.78,9.88-5.69
	c0.62-0.36,1.19-0.81,1.93-0.89c0.58,2.02,1.15,4.04,1.73,6.06c-1.23-0.03-2.16,0.69-3.15,1.27c-2.17,1.27-4.33,2.55-6.51,3.81
	c-8.82,5.11-17.62,10.26-26.49,15.28c-3.93,2.22-7.66,4.81-11.88,6.5C142.34,219.05,141.93,217.12,141.54,215.18z"/>
<path class="st3" d="M174.01,116.47c2.24-0.27,3.86-1.85,5.7-2.89c9.74-5.54,19.4-11.23,29.1-16.85c3.42-1.98,6.88-3.9,10.32-5.84
	c1.05,1.5,2.1,3,3.15,4.5c-0.25,0.26-0.45,0.59-0.74,0.76c-7.83,4.52-15.68,9.01-23.52,13.53c-7.15,4.13-14.27,8.29-21.41,12.43
	C175.02,120.56,174.58,118.48,174.01,116.47z"/>
<path class="st3" d="M143.28,220.81c4.22-1.68,7.95-4.27,11.88-6.5c8.87-5.02,17.67-10.18,26.49-15.28
	c2.17-1.26,4.34-2.53,6.51-3.81c0.99-0.58,1.92-1.3,3.15-1.27c0.97,1.6,0.97,3.53,1.73,5.2c-4.22,1.69-7.95,4.28-11.86,6.53
	c-7.97,4.57-15.92,9.18-23.88,13.77c-3.3,1.9-6.6,3.79-9.88,5.72c-0.76,0.45-1.48,0.88-2.39,0.84
	C143.78,224.5,143.75,222.58,143.28,220.81z"/>
<path class="st3" d="M217.3,238.56c-1.56-1.16-3.59-1.78-4.31-3.87c0.69-0.76,1.58-1.21,2.45-1.71c7.08-4.08,14.16-8.17,21.24-12.25
	c7.27-4.18,14.55-8.35,21.83-12.52c0.75,1.96,1.31,3.95,1.18,6.08c-6.85,3.91-13.7,7.81-20.54,11.73
	C231.87,230.2,224.59,234.39,217.3,238.56z"/>
<path class="st3" d="M134.72,221.24c-0.72,4.35-2.47,8.26-5.13,11.77c-4.2,5.56-9.86,8.95-16.63,10.04
	c-4.58,0.74-9.32,0.73-13.8-1.12c0.04-0.73,0.66-0.87,1.14-1.15c8.13-4.72,16.25-9.47,24.41-14.12
	C128.01,224.78,131.1,222.51,134.72,221.24z"/>
<path class="st3" d="M207.77,225.57c3.59-1.47,6.77-3.71,10.12-5.61c8.91-5.05,17.75-10.23,26.62-15.36
	c3.66-2.12,7.32-4.23,10.97-6.35c0.85,1.64,1.19,3.44,1.61,5.22c-0.53,0.21-1.11,0.34-1.59,0.63c-7.91,4.55-15.79,9.13-23.7,13.69
	c-7.28,4.2-14.58,8.37-21.87,12.55C209.03,228.84,208.01,227.38,207.77,225.57z"/>
<path class="st3" d="M196.93,215.6c-3.89,1.55-7.28,4-10.9,6.05c-8.13,4.59-16.21,9.26-24.26,13.98c-2.02,1.18-4.25,2.07-5.91,3.83
	c-1.8-0.86-3.56-1.78-4.76-3.46c2.47-2.49,5.77-3.69,8.71-5.43c8.89-5.27,17.83-10.47,26.84-15.53c3.1-1.74,5.97-3.95,9.42-5.06
	C196.71,211.79,197.1,213.65,196.93,215.6z"/>
<path class="st3" d="M213.04,86.1c-3.81,2.96-8.17,5.01-12.29,7.45c-8.14,4.82-16.35,9.52-24.55,14.23
	c-1.04,0.6-2.06,1.36-3.37,1.32c-0.36-2.67,0.39-5.21,0.87-7.79c1.15,0.04,2.04-0.62,2.96-1.15c4.41-2.53,8.85-5,13.19-7.64
	c5.25-3.2,10.82-5.86,15.85-9.42C208.42,83.43,210.88,84.4,213.04,86.1z"/>
<path class="st3" d="M209.94,230.34c7.29-4.18,14.59-8.35,21.87-12.55c7.9-4.55,15.79-9.13,23.7-13.69
	c0.49-0.28,1.06-0.42,1.59-0.63c0.7,1.51,1.36,3.04,1.42,4.74c-7.28,4.17-14.56,8.34-21.83,12.52c-7.08,4.07-14.16,8.17-21.24,12.25
	c-0.87,0.5-1.76,0.95-2.45,1.71C211.47,233.6,210.5,232.12,209.94,230.34z"/>
<path class="st3" d="M176.61,122.1c7.14-4.14,14.26-8.3,21.41-12.43c7.83-4.52,15.68-9.01,23.52-13.53c0.29-0.17,0.49-0.5,0.74-0.76
	c0.94,1.4,1.64,2.92,2.02,4.57c-3.14,1.87-6.25,3.78-9.41,5.61c-8.08,4.68-16.14,9.38-24.27,13.98c-3.8,2.15-7.43,4.61-11.41,6.45
	C178.14,124.83,176.99,123.72,176.61,122.1z"/>
<path class="st3" d="M94.82,239.89c-1.8-0.87-3.57-1.78-4.77-3.47c0.22-0.6,0.76-0.81,1.26-1.1c11.86-6.86,23.68-13.78,35.59-20.54
	c2.21-1.25,4.15-3.12,6.82-3.52c0.58,1.59,1.15,3.18,1.73,4.76c-1.39,0.25-2.45,1.17-3.62,1.84c-10.83,6.21-21.68,12.39-32.46,18.69
	C97.78,237.5,95.75,237.99,94.82,239.89z"/>
<path class="st3" d="M84.09,228.59c3.49-1.52,6.65-3.63,9.93-5.51c8.15-4.66,16.27-9.36,24.38-14.07c4.15-2.41,8.28-4.86,12.41-7.29
	c0.96,1.45,0.88,3.25,1.61,4.78c-3.25,1.38-6.17,3.35-9.21,5.09c-8.85,5.07-17.63,10.25-26.51,15.28c-3.36,1.9-6.55,4.14-10.14,5.62
	C85.36,231.44,84.69,230.03,84.09,228.59z"/>
<path class="st3" d="M86.56,232.5c3.6-1.48,6.78-3.72,10.14-5.62c8.87-5.03,17.66-10.2,26.51-15.28c3.04-1.75,5.97-3.71,9.21-5.09
	c0.43,1.59,0.87,3.17,1.3,4.76c-2.67,0.4-4.61,2.26-6.82,3.52c-11.91,6.76-23.74,13.68-35.59,20.54c-0.5,0.29-1.04,0.5-1.26,1.1
	C88.81,235.18,87.18,234.29,86.56,232.5z"/>
<path class="st3" d="M114.8,150.2c-4.35,2-8.29,4.74-12.5,6.99c-2.3,1.23-4.3,3.15-7.08,3.4c0.61-4.04,1.94-7.9,2.99-11.83
	c0.45-1.68,0.62-3.46,1.46-5.03c4.05-1.46,7.5-4.02,11.2-6.11C112.45,141.73,113.79,145.92,114.8,150.2z"/>
<path class="st3" d="M179.21,126c3.98-1.84,7.61-4.3,11.41-6.45c8.13-4.6,16.19-9.3,24.27-13.98c3.16-1.83,6.28-3.74,9.41-5.61
	c0.64,1.54,1.15,3.12,1.21,4.81c-0.51-0.02-0.95,0.12-1.42,0.39c-11.75,6.8-23.53,13.54-35.23,20.42c-1.97,1.16-4.42,1.74-5.72,3.92
	C181.33,128.88,180.45,127.23,179.21,126z"/>
<path class="st3" d="M205.7,83.1c-5.03,3.56-10.6,6.22-15.85,9.42c-4.34,2.64-8.78,5.11-13.19,7.64c-0.92,0.53-1.81,1.19-2.96,1.15
	c3.1-9.39,9.23-15.71,18.87-18.29C196.91,81.85,201.34,81.71,205.7,83.1z"/>
<path class="st3" d="M217.3,238.56c7.29-4.18,14.57-8.36,21.86-12.53c6.84-3.92,13.69-7.82,20.54-11.73c0,1.73,0,3.46,0,5.19
	c-4.07,1.49-7.55,4.08-11.29,6.17c-8.12,4.54-16.12,9.31-24.17,13.97c-0.7,0.4-1.37,0.78-1.72,1.55
	C220.68,240.52,218.93,239.66,217.3,238.56z"/>
<path class="st3" d="M94.82,239.89c0.93-1.9,2.96-2.39,4.56-3.33c10.78-6.3,21.63-12.48,32.46-18.69c1.18-0.67,2.23-1.59,3.62-1.84
	c0.62,1.86-0.04,3.54-0.74,5.21c-3.62,1.27-6.71,3.54-10,5.41c-8.17,4.66-16.28,9.41-24.41,14.12c-0.48,0.28-1.11,0.43-1.14,1.15
	C97.62,241.46,96.12,240.89,94.82,239.89z"/>
<path class="st3" d="M183.13,129.5c1.3-2.17,3.74-2.76,5.72-3.92c11.7-6.88,23.49-13.61,35.23-20.42c0.46-0.27,0.91-0.41,1.42-0.39
	c-0.19,1.33,0.75,2.54,0.43,3.89c-0.79,0.34-1.62,0.6-2.36,1.03c-10.07,5.8-20.15,11.58-30.16,17.48c-2.45,1.44-5.18,2.45-7.26,4.49
	C184.95,131.22,183.86,130.62,183.13,129.5z"/>
<path class="st3" d="M224.2,118.19c-2.59,6.56-7.06,11.45-13.39,14.51c-5.08,2.46-10.46,3.06-16.02,1.97
	c7.34-4.22,14.64-8.49,22.03-12.63C219.24,120.68,221.45,118.9,224.2,118.19z"/>
<path class="st3" d="M224.2,118.19c-2.75,0.71-4.97,2.49-7.38,3.84c-7.38,4.14-14.69,8.41-22.03,12.63
	c-1.22,0.02-2.41-0.08-3.44-0.84c0.35-1.83,2.14-2.01,3.34-2.73c7.75-4.63,15.54-9.23,23.41-13.65c2.29-1.29,4.43-2.97,7.08-3.57
	C225.15,115.38,224.59,116.76,224.2,118.19z"/>
<path class="st3" d="M110.88,137.62c-3.71,2.09-7.16,4.65-11.2,6.11c1.94-7.47,3.88-14.93,5.82-22.4
	C107.59,126.78,109.66,132.07,110.88,137.62z"/>
<path class="st3" d="M225.19,113.87c-2.65,0.6-4.79,2.28-7.08,3.57c-7.88,4.42-15.66,9.01-23.41,13.65c-1.2,0.72-2.99,0.9-3.34,2.73
	c-1.27-0.15-2.48-0.47-3.49-1.32c1.22-0.75,2.42-1.53,3.66-2.25c6.95-4.03,13.9-8.06,20.86-12.07c4.34-2.5,8.57-5.21,13.11-7.35
	C225.44,111.85,225.98,112.93,225.19,113.87z"/>
<path class="st3" d="M225.5,110.83c-4.54,2.14-8.77,4.85-13.11,7.35c-6.96,4.01-13.91,8.03-20.86,12.07
	c-1.24,0.72-2.44,1.5-3.66,2.25c-0.68-0.05-1.24-0.36-1.71-0.84c2.08-2.04,4.81-3.05,7.26-4.49c10.01-5.89,20.1-11.67,30.16-17.48
	c0.74-0.43,1.57-0.69,2.36-1.03C226.1,109.45,226.06,110.19,225.5,110.83z"/>
</svg>
